<?xml version="1.0" encoding="utf-8"?>
<!-- generated at drububu.com  -->
<!DOCTYPE svg PUBLIC "-//W3C//DTD SVG 1.1//EN" "http://www.w3.org/Graphics/SVG/1.1/DTD/svg11.dtd">
<svg version="1.1" preserveAspectRatio="xMinYMin meet" xmlns="http://www.w3.org/2000/svg" xmlns:xlink="http://www.w3.org/1999/xlink" x="0px" y="0px" width="59px" height="56px" viewBox="0 0 59 56">
<path d="M29 1h1v1h1v2h1v2h1v2h1v2h1v2h1v2h1v2h1v2h4v1h6v1h7v1h4v1h-1v1h-1v1h-1
	v1h-1v1h-1v1h-1v1h-1v1h-2v1h-1v1h-1v1h-1v1h-1v1h-1v1h-1v3h1v5h1v5h1v5h1v3h-1
	v-1h-2v-1h-2v-1h-2v-1h-2v-1h-1v-1h-2v-1h-2v-1h-2v-1h-2v-1h-1v1h-2v1h-2v1h-2v1h-2
	v1h-1v1h-2v1h-2v1h-2v1h-2v1h-1v-3h1v-5h1v-5h1v-5h1v-3h-1v-1h-1v-1h-1v-1h-1v-1
	h-1v-1h-1v-1h-1v-1h-1v-1h-1v-1h-1v-1h-1v-1h-1v-1h-1v-1h-1v-1h4v-1h6v-1h6v-1h4
	v-2h1v-2h1v-2h1v-2h1v-2h1v-2h1v-2h1v-2h1v-1z" fill="rgb(0,0,0)"/>
</svg>